%FSLAX34Y34*%
%MOMM*%
%LNSILK_BOTTOM*%
G71*
G01*
%ADD10C,0.260*%
%ADD11C,0.206*%
%ADD12C,0.159*%
%LPD*%
G54D10*
X170475Y-100775D02*
X170475Y-143375D01*
X206075Y-143375D01*
X206075Y-100775D01*
X170475Y-100775D01*
G54D11*
X192319Y-158798D02*
X187986Y-160964D01*
G54D11*
X188852Y-151575D02*
X188852Y-158798D01*
X189719Y-160242D01*
X191452Y-160964D01*
X193186Y-160964D01*
X194919Y-160242D01*
X195786Y-158798D01*
X195786Y-151575D01*
X194919Y-150131D01*
X193186Y-149409D01*
X191452Y-149409D01*
X189719Y-150131D01*
X188852Y-151575D01*
G54D11*
X183942Y-153742D02*
X179608Y-149409D01*
X179608Y-160964D01*
G54D10*
X122638Y-100224D02*
X122638Y-142824D01*
X158238Y-142824D01*
X158238Y-100224D01*
X122638Y-100224D01*
G54D11*
X145619Y-91686D02*
X141286Y-93852D01*
G54D11*
X142152Y-84463D02*
X142152Y-91686D01*
X143019Y-93130D01*
X144752Y-93852D01*
X146486Y-93852D01*
X148219Y-93130D01*
X149086Y-91686D01*
X149086Y-84463D01*
X148219Y-83019D01*
X146486Y-82297D01*
X144752Y-82297D01*
X143019Y-83019D01*
X142152Y-84463D01*
G54D11*
X130308Y-93852D02*
X137242Y-93852D01*
X137242Y-93130D01*
X136375Y-91686D01*
X131175Y-87352D01*
X130308Y-85908D01*
X130308Y-84463D01*
X131175Y-83019D01*
X132908Y-82297D01*
X134642Y-82297D01*
X136375Y-83019D01*
X137242Y-84463D01*
G54D10*
X202900Y-232275D02*
X202900Y-189675D01*
X167300Y-189675D01*
X167300Y-232275D01*
X202900Y-232275D01*
G54D11*
X192950Y-181198D02*
X188617Y-183364D01*
G54D11*
X189483Y-173976D02*
X189483Y-181198D01*
X190350Y-182642D01*
X192083Y-183364D01*
X193817Y-183364D01*
X195550Y-182642D01*
X196417Y-181198D01*
X196417Y-173976D01*
X195550Y-172531D01*
X193817Y-171809D01*
X192083Y-171809D01*
X190350Y-172531D01*
X189483Y-173976D01*
G54D11*
X184573Y-173976D02*
X183706Y-172531D01*
X181973Y-171809D01*
X180239Y-171809D01*
X178506Y-172531D01*
X177639Y-173976D01*
X177639Y-175420D01*
X178506Y-176864D01*
X180239Y-177587D01*
X178506Y-178309D01*
X177639Y-179753D01*
X177639Y-181198D01*
X178506Y-182642D01*
X180239Y-183364D01*
X181973Y-183364D01*
X183706Y-182642D01*
X184573Y-181198D01*
G54D10*
X272750Y-260850D02*
X272750Y-218250D01*
X237150Y-218250D01*
X237150Y-260850D01*
X272750Y-260850D01*
G54D11*
X259545Y-209846D02*
X255211Y-212013D01*
G54D11*
X256078Y-202624D02*
X256078Y-209846D01*
X256945Y-211291D01*
X258678Y-212013D01*
X260411Y-212013D01*
X262145Y-211291D01*
X263011Y-209846D01*
X263011Y-202624D01*
X262145Y-201180D01*
X260411Y-200457D01*
X258678Y-200457D01*
X256945Y-201180D01*
X256078Y-202624D01*
G54D11*
X245967Y-212013D02*
X245967Y-200457D01*
X251167Y-207680D01*
X251167Y-209124D01*
X244234Y-209124D01*
G54D10*
X308450Y-207775D02*
X328450Y-207775D01*
X328450Y-169775D01*
X308450Y-169775D01*
X308450Y-207775D01*
G54D11*
X320075Y-166229D02*
X324408Y-161895D01*
X312852Y-161895D01*
G54D11*
X319352Y-157852D02*
X309964Y-157852D01*
G54D11*
X319352Y-152652D02*
X312852Y-152652D01*
G54D11*
X314297Y-152652D02*
X313141Y-153518D01*
X312852Y-155252D01*
X313141Y-156985D01*
X314297Y-157852D01*
X319352Y-157852D01*
G54D11*
X312852Y-148608D02*
X324408Y-141674D01*
G54D11*
X312852Y-130697D02*
X312852Y-137631D01*
X313575Y-137631D01*
X315019Y-136764D01*
X319352Y-131564D01*
X320797Y-130697D01*
X322241Y-130697D01*
X323686Y-131564D01*
X324408Y-133297D01*
X324408Y-135031D01*
X323686Y-136764D01*
X322241Y-137631D01*
G54D11*
X324408Y-119720D02*
X324408Y-126654D01*
X319352Y-126654D01*
X319352Y-125787D01*
X320075Y-124054D01*
X320075Y-122320D01*
X319352Y-120587D01*
X317908Y-119720D01*
X315019Y-119720D01*
X313575Y-120587D01*
X312852Y-122320D01*
X312852Y-124054D01*
X313575Y-125787D01*
X315019Y-126654D01*
G54D11*
X324408Y-115677D02*
X312852Y-111343D01*
X324408Y-107010D01*
G54D10*
X80800Y-106225D02*
X60800Y-106225D01*
X60800Y-144225D01*
X80800Y-144225D01*
X80800Y-106225D01*
G54D11*
X81775Y-160018D02*
X88709Y-160018D01*
X88709Y-159295D01*
X87842Y-157851D01*
X82642Y-153518D01*
X81775Y-152073D01*
X81775Y-150629D01*
X82642Y-149184D01*
X84375Y-148462D01*
X86109Y-148462D01*
X87842Y-149184D01*
X88709Y-150629D01*
G54D11*
X77732Y-160018D02*
X77732Y-148462D01*
X73398Y-155684D01*
X69065Y-148462D01*
X69065Y-160018D01*
G54D11*
X58087Y-160018D02*
X65021Y-160018D01*
X65021Y-159295D01*
X64154Y-157851D01*
X58954Y-153518D01*
X58087Y-152073D01*
X58087Y-150629D01*
X58954Y-149184D01*
X60687Y-148462D01*
X62421Y-148462D01*
X64154Y-149184D01*
X65021Y-150629D01*
G54D10*
X131600Y-169725D02*
X111600Y-169725D01*
X111600Y-207725D01*
X131600Y-207725D01*
X131600Y-169725D01*
G54D11*
X123847Y-230700D02*
X128181Y-226367D01*
X116625Y-226367D01*
G54D11*
X116625Y-222323D02*
X128181Y-222323D01*
X120958Y-217990D01*
X128180Y-213656D01*
X116625Y-213656D01*
G54D10*
X106200Y-169725D02*
X86200Y-169725D01*
X86200Y-207725D01*
X106200Y-207725D01*
X106200Y-169725D01*
G54D11*
X98447Y-247369D02*
X102781Y-243035D01*
X91225Y-243035D01*
G54D11*
X100614Y-232058D02*
X93392Y-232058D01*
X91947Y-232925D01*
X91225Y-234658D01*
X91225Y-236392D01*
X91947Y-238125D01*
X93392Y-238992D01*
X100614Y-238992D01*
X102058Y-238125D01*
X102781Y-236392D01*
X102781Y-234658D01*
X102058Y-232925D01*
X100614Y-232058D01*
G54D11*
X100614Y-221081D02*
X93392Y-221081D01*
X91947Y-221948D01*
X91225Y-223681D01*
X91225Y-225415D01*
X91947Y-227148D01*
X93392Y-228015D01*
X100614Y-228015D01*
X102058Y-227148D01*
X102781Y-225415D01*
X102781Y-223681D01*
X102058Y-221948D01*
X100614Y-221081D01*
G54D11*
X91225Y-217038D02*
X97725Y-217038D01*
G54D11*
X96281Y-217038D02*
X97292Y-216171D01*
X97725Y-214438D01*
X97292Y-212704D01*
X96281Y-211838D01*
X91225Y-211838D01*
G54D10*
X80800Y-169725D02*
X60800Y-169725D01*
X60800Y-207725D01*
X80800Y-207725D01*
X80800Y-169725D01*
G54D11*
X73047Y-239855D02*
X77380Y-235521D01*
X65824Y-235521D01*
G54D11*
X65824Y-231478D02*
X77380Y-231478D01*
X70158Y-227144D01*
X77380Y-222811D01*
X65824Y-222811D01*
G54D11*
X77380Y-211833D02*
X77380Y-218767D01*
X72324Y-218767D01*
X72324Y-217900D01*
X73047Y-216167D01*
X73047Y-214433D01*
X72324Y-212700D01*
X70880Y-211833D01*
X67991Y-211833D01*
X66547Y-212700D01*
X65824Y-214433D01*
X65824Y-216167D01*
X66547Y-217900D01*
X67991Y-218767D01*
G54D10*
X115725Y-106225D02*
X95725Y-106225D01*
X95725Y-144225D01*
X115725Y-144225D01*
X115725Y-106225D01*
G54D11*
X104797Y-100525D02*
X109130Y-96192D01*
X97575Y-96192D01*
G54D11*
X97575Y-92148D02*
X109130Y-92148D01*
X101908Y-87815D01*
X109130Y-83481D01*
X97575Y-83481D01*
G54D11*
X109130Y-72504D02*
X109130Y-79437D01*
X104075Y-79437D01*
X104075Y-78570D01*
X104797Y-76837D01*
X104797Y-75104D01*
X104075Y-73370D01*
X102630Y-72504D01*
X99742Y-72504D01*
X98297Y-73370D01*
X97575Y-75104D01*
X97575Y-76837D01*
X98297Y-78570D01*
X99742Y-79437D01*
G54D10*
X207300Y-95563D02*
X207300Y-75563D01*
X169300Y-75563D01*
X169300Y-95563D01*
X207300Y-95563D01*
G54D11*
X201087Y-61161D02*
X200221Y-59717D01*
X198487Y-58994D01*
X196754Y-58994D01*
X195021Y-59717D01*
X194154Y-61161D01*
X194154Y-62605D01*
X195021Y-64050D01*
X196754Y-64772D01*
X195021Y-65494D01*
X194154Y-66939D01*
X194154Y-68383D01*
X195021Y-69828D01*
X196754Y-70550D01*
X198487Y-70550D01*
X200221Y-69828D01*
X201087Y-68383D01*
G54D11*
X190110Y-61161D02*
X189244Y-59717D01*
X187510Y-58994D01*
X185777Y-58994D01*
X184044Y-59717D01*
X183177Y-61161D01*
X183177Y-62606D01*
X184044Y-64050D01*
X185777Y-64772D01*
X184044Y-65494D01*
X183177Y-66939D01*
X183177Y-68383D01*
X184044Y-69828D01*
X185777Y-70550D01*
X187510Y-70550D01*
X189244Y-69828D01*
X190110Y-68383D01*
G54D11*
X179133Y-70550D02*
X179133Y-58994D01*
G54D11*
X176533Y-66217D02*
X173933Y-70550D01*
G54D11*
X179133Y-67661D02*
X173933Y-64050D01*
G54D10*
X233200Y-103050D02*
X213200Y-103050D01*
X213200Y-141050D01*
X233200Y-141050D01*
X233200Y-103050D01*
G54D11*
X244497Y-144975D02*
X248831Y-140642D01*
X237275Y-140642D01*
G54D11*
X246664Y-129665D02*
X239442Y-129665D01*
X237997Y-130531D01*
X237275Y-132265D01*
X237275Y-133998D01*
X237997Y-135731D01*
X239442Y-136598D01*
X246664Y-136598D01*
X248108Y-135731D01*
X248831Y-133998D01*
X248831Y-132265D01*
X248108Y-130531D01*
X246664Y-129665D01*
G54D11*
X246664Y-118688D02*
X239442Y-118688D01*
X237997Y-119554D01*
X237275Y-121288D01*
X237275Y-123021D01*
X237997Y-124754D01*
X239442Y-125621D01*
X246664Y-125621D01*
X248108Y-124754D01*
X248831Y-123021D01*
X248831Y-121288D01*
X248108Y-119554D01*
X246664Y-118688D01*
G54D11*
X243053Y-111177D02*
X241608Y-108577D01*
X240164Y-107711D01*
X237275Y-107711D01*
G54D11*
X237275Y-114644D02*
X248831Y-114644D01*
X248831Y-110311D01*
X248108Y-108577D01*
X246664Y-107711D01*
X245220Y-107711D01*
X243775Y-108577D01*
X243053Y-110311D01*
X243053Y-114644D01*
G54D10*
X273525Y-207775D02*
X293525Y-207775D01*
X293525Y-169775D01*
X273525Y-169775D01*
X273525Y-207775D01*
G54D11*
X276920Y-159777D02*
X288475Y-159777D01*
X281253Y-164977D01*
X279809Y-164977D01*
X279809Y-158043D01*
G54D11*
X288475Y-154000D02*
X288475Y-147066D01*
X287031Y-147933D01*
X284864Y-149666D01*
X281975Y-151400D01*
X279809Y-152266D01*
X276920Y-152266D01*
G54D11*
X286309Y-136089D02*
X279086Y-136089D01*
X277642Y-136956D01*
X276920Y-138689D01*
X276920Y-140423D01*
X277642Y-142156D01*
X279086Y-143023D01*
X286309Y-143023D01*
X287753Y-142156D01*
X288475Y-140423D01*
X288475Y-138689D01*
X287753Y-136956D01*
X286309Y-136089D01*
G54D11*
X276920Y-132046D02*
X288475Y-132046D01*
G54D11*
X281253Y-129446D02*
X276920Y-126846D01*
G54D11*
X279809Y-132046D02*
X283420Y-126846D01*
G54D10*
X166125Y-242250D02*
X166125Y-262250D01*
X204125Y-262250D01*
X204125Y-242250D01*
X166125Y-242250D01*
G54D11*
X189236Y-265485D02*
X196169Y-265485D01*
X196169Y-270541D01*
X195302Y-270541D01*
X193569Y-269819D01*
X191836Y-269819D01*
X190102Y-270541D01*
X189236Y-271985D01*
X189236Y-274874D01*
X190102Y-276319D01*
X191836Y-277041D01*
X193569Y-277041D01*
X195302Y-276319D01*
X196169Y-274874D01*
G54D11*
X185192Y-277041D02*
X185192Y-265485D01*
G54D11*
X182592Y-272708D02*
X179992Y-277041D01*
G54D11*
X185192Y-274152D02*
X179992Y-270541D01*
G54D11*
X175948Y-269819D02*
X171615Y-265485D01*
X171615Y-277041D01*
G54D10*
X210025Y-261750D02*
X230025Y-261750D01*
X230025Y-223750D01*
X210025Y-223750D01*
X210025Y-261750D01*
G54D11*
X227333Y-269838D02*
X223000Y-265504D01*
X223000Y-277060D01*
G54D11*
X218956Y-277060D02*
X218956Y-265504D01*
G54D11*
X216356Y-272727D02*
X213756Y-277060D01*
G54D11*
X218956Y-274171D02*
X213756Y-270560D01*
G54D10*
X80800Y-245925D02*
X60800Y-245925D01*
X60800Y-283925D01*
X80800Y-283925D01*
X80800Y-245925D01*
G54D11*
X92097Y-287850D02*
X96431Y-283517D01*
X84875Y-283517D01*
G54D11*
X84875Y-279473D02*
X96431Y-279473D01*
X89208Y-275140D01*
X96430Y-270806D01*
X84875Y-270806D01*
G54D10*
X204412Y-300391D02*
X204412Y-280391D01*
X166412Y-280391D01*
X166412Y-300391D01*
X204412Y-300391D01*
G54D11*
X195762Y-317266D02*
X195762Y-305710D01*
X200962Y-312932D01*
X200962Y-314377D01*
X194029Y-314377D01*
G54D11*
X189985Y-305710D02*
X183052Y-305710D01*
X183919Y-307154D01*
X185652Y-309321D01*
X187385Y-312210D01*
X188252Y-314377D01*
X188252Y-317266D01*
G54D11*
X175542Y-311488D02*
X172942Y-312932D01*
X172075Y-314377D01*
X172075Y-317266D01*
G54D11*
X179008Y-317266D02*
X179008Y-305710D01*
X174675Y-305710D01*
X172942Y-306432D01*
X172075Y-307877D01*
X172075Y-309321D01*
X172942Y-310766D01*
X174675Y-311488D01*
X179008Y-311488D01*
G54D12*
X224854Y-151449D02*
X230188Y-151449D01*
X230188Y-155338D01*
X229521Y-155338D01*
X228188Y-154782D01*
X226854Y-154782D01*
X225521Y-155338D01*
X224854Y-156449D01*
X224854Y-158671D01*
X225521Y-159782D01*
X226854Y-160338D01*
X228188Y-160338D01*
X229521Y-159782D01*
X230188Y-158671D01*
G54D12*
X216410Y-153115D02*
X216410Y-158671D01*
X217077Y-159782D01*
X218410Y-160338D01*
X219744Y-160338D01*
X221077Y-159782D01*
X221744Y-158671D01*
X221744Y-153115D01*
X221077Y-152004D01*
X219744Y-151449D01*
X218410Y-151449D01*
X217077Y-152004D01*
X216410Y-153115D01*
G54D12*
X209966Y-155893D02*
X211300Y-155893D01*
X212633Y-155338D01*
X213300Y-154226D01*
X213300Y-153115D01*
X212633Y-152004D01*
X211300Y-151449D01*
X209966Y-151449D01*
X208633Y-152004D01*
X207966Y-153115D01*
X207966Y-154226D01*
X208633Y-155338D01*
X209966Y-155893D01*
X208633Y-156449D01*
X207966Y-157560D01*
X207966Y-158671D01*
X208633Y-159782D01*
X209966Y-160338D01*
X211300Y-160338D01*
X212633Y-159782D01*
X213300Y-158671D01*
X213300Y-157560D01*
X212633Y-156449D01*
X211300Y-155893D01*
G54D12*
X204856Y-151449D02*
X199522Y-151449D01*
X200189Y-152560D01*
X201522Y-154226D01*
X202856Y-156449D01*
X203522Y-158115D01*
X203522Y-160338D01*
G54D12*
X162979Y-214838D02*
X162979Y-220171D01*
X159090Y-220171D01*
X159090Y-219505D01*
X159646Y-218171D01*
X159646Y-216838D01*
X159090Y-215505D01*
X157979Y-214838D01*
X155757Y-214838D01*
X154646Y-215505D01*
X154090Y-216838D01*
X154090Y-218171D01*
X154646Y-219505D01*
X155757Y-220171D01*
G54D12*
X161312Y-206394D02*
X155757Y-206394D01*
X154646Y-207061D01*
X154090Y-208394D01*
X154090Y-209727D01*
X154646Y-211061D01*
X155757Y-211727D01*
X161312Y-211727D01*
X162424Y-211061D01*
X162979Y-209727D01*
X162979Y-208394D01*
X162424Y-207061D01*
X161312Y-206394D01*
G54D12*
X158535Y-199950D02*
X158535Y-201283D01*
X159090Y-202617D01*
X160201Y-203283D01*
X161312Y-203283D01*
X162424Y-202617D01*
X162979Y-201283D01*
X162979Y-199950D01*
X162424Y-198617D01*
X161312Y-197950D01*
X160201Y-197950D01*
X159090Y-198617D01*
X158535Y-199950D01*
X157979Y-198617D01*
X156868Y-197950D01*
X155757Y-197950D01*
X154646Y-198617D01*
X154090Y-199950D01*
X154090Y-201283D01*
X154646Y-202617D01*
X155757Y-203283D01*
X156868Y-203283D01*
X157979Y-202617D01*
X158535Y-201283D01*
G54D12*
X158535Y-191506D02*
X158535Y-192839D01*
X159090Y-194173D01*
X160201Y-194839D01*
X161312Y-194839D01*
X162424Y-194173D01*
X162979Y-192839D01*
X162979Y-191506D01*
X162424Y-190173D01*
X161312Y-189506D01*
X160201Y-189506D01*
X159090Y-190173D01*
X158535Y-191506D01*
X157979Y-190173D01*
X156868Y-189506D01*
X155757Y-189506D01*
X154646Y-190173D01*
X154090Y-191506D01*
X154090Y-192839D01*
X154646Y-194173D01*
X155757Y-194839D01*
X156868Y-194839D01*
X157979Y-194173D01*
X158535Y-192839D01*
G54D12*
X148654Y-146686D02*
X153988Y-146686D01*
X153988Y-150575D01*
X153321Y-150575D01*
X151988Y-150019D01*
X150654Y-150019D01*
X149321Y-150575D01*
X148654Y-151686D01*
X148654Y-153908D01*
X149321Y-155019D01*
X150654Y-155575D01*
X151988Y-155575D01*
X153321Y-155019D01*
X153988Y-153908D01*
G54D12*
X140210Y-148353D02*
X140210Y-153908D01*
X140877Y-155019D01*
X142210Y-155575D01*
X143544Y-155575D01*
X144877Y-155019D01*
X145544Y-153908D01*
X145544Y-148353D01*
X144877Y-147242D01*
X143544Y-146686D01*
X142210Y-146686D01*
X140877Y-147242D01*
X140210Y-148353D01*
G54D12*
X133766Y-151131D02*
X135100Y-151131D01*
X136433Y-150575D01*
X137100Y-149464D01*
X137100Y-148353D01*
X136433Y-147242D01*
X135100Y-146686D01*
X133766Y-146686D01*
X132433Y-147242D01*
X131766Y-148353D01*
X131766Y-149464D01*
X132433Y-150575D01*
X133766Y-151131D01*
X132433Y-151686D01*
X131766Y-152797D01*
X131766Y-153908D01*
X132433Y-155019D01*
X133766Y-155575D01*
X135100Y-155575D01*
X136433Y-155019D01*
X137100Y-153908D01*
X137100Y-152797D01*
X136433Y-151686D01*
X135100Y-151131D01*
G54D12*
X125322Y-151131D02*
X126656Y-151131D01*
X127989Y-150575D01*
X128656Y-149464D01*
X128656Y-148353D01*
X127989Y-147242D01*
X126656Y-146686D01*
X125322Y-146686D01*
X123989Y-147242D01*
X123322Y-148353D01*
X123322Y-149464D01*
X123989Y-150575D01*
X125322Y-151131D01*
X123989Y-151686D01*
X123322Y-152797D01*
X123322Y-153908D01*
X123989Y-155019D01*
X125322Y-155575D01*
X126656Y-155575D01*
X127989Y-155019D01*
X128656Y-153908D01*
X128656Y-152797D01*
X127989Y-151686D01*
X126656Y-151131D01*
G54D12*
X285217Y-243413D02*
X285217Y-248746D01*
X281328Y-248746D01*
X281328Y-248080D01*
X281883Y-246746D01*
X281883Y-245413D01*
X281328Y-244080D01*
X280217Y-243413D01*
X277994Y-243413D01*
X276883Y-244080D01*
X276328Y-245413D01*
X276328Y-246746D01*
X276883Y-248080D01*
X277994Y-248746D01*
G54D12*
X283550Y-234969D02*
X277994Y-234969D01*
X276883Y-235636D01*
X276328Y-236969D01*
X276328Y-238302D01*
X276883Y-239636D01*
X277994Y-240302D01*
X283550Y-240302D01*
X284661Y-239636D01*
X285217Y-238302D01*
X285217Y-236969D01*
X284661Y-235636D01*
X283550Y-234969D01*
G54D12*
X280772Y-228525D02*
X280772Y-229858D01*
X281328Y-231192D01*
X282439Y-231858D01*
X283550Y-231858D01*
X284661Y-231192D01*
X285217Y-229858D01*
X285217Y-228525D01*
X284661Y-227192D01*
X283550Y-226525D01*
X282439Y-226525D01*
X281328Y-227192D01*
X280772Y-228525D01*
X280217Y-227192D01*
X279105Y-226525D01*
X277994Y-226525D01*
X276883Y-227192D01*
X276328Y-228525D01*
X276328Y-229858D01*
X276883Y-231192D01*
X277994Y-231858D01*
X279105Y-231858D01*
X280217Y-231192D01*
X280772Y-229858D01*
G54D12*
X280772Y-220081D02*
X280772Y-221414D01*
X281328Y-222748D01*
X282439Y-223414D01*
X283550Y-223414D01*
X284661Y-222748D01*
X285217Y-221414D01*
X285217Y-220081D01*
X284661Y-218748D01*
X283550Y-218081D01*
X282439Y-218081D01*
X281328Y-218748D01*
X280772Y-220081D01*
X280217Y-218748D01*
X279105Y-218081D01*
X277994Y-218081D01*
X276883Y-218748D01*
X276328Y-220081D01*
X276328Y-221414D01*
X276883Y-222748D01*
X277994Y-223414D01*
X279105Y-223414D01*
X280217Y-222748D01*
X280772Y-221414D01*
M02*
