; Drill file
; Format: 2.4 (00.0000)
M48
INCH
T01C0.0118
T02C0.0315
T03C0.0354
T04C0.063
T05C0.126
%
G05
G90
T01
X002000Y-012000
X004000Y-010000
X004750Y-009750
X005000Y-009000
X004000Y-009000
X003000Y-009000
X006250Y-008750
X006250Y-010000
X006000Y-011000
X006000Y-012000
X005250Y-012750
X008000Y-013000
X009000Y-012000
X010000Y-012000
X011000Y-012000
X011000Y-011000
X011000Y-010000
X012000Y-010000
X012000Y-009000
X013000Y-009000
X014000Y-009000
X014000Y-010000
X013000Y-010000
X013000Y-011000
X012000Y-011000
X012000Y-012000
X010000Y-013000
X009000Y-011000
X008910Y-008430
X009660Y-007810
X009660Y-006560
X010000Y-006000
X011000Y-006000
X012000Y-006000
X013000Y-006000
X012000Y-004000
X012000Y-003000
X012000Y-002000
X011000Y-002000
X010000Y-002000
X009000Y-002000
X008000Y-002000
X007000Y-002000
X006000Y-002000
X005000Y-002000
X004000Y-002000
X004000Y-003000
X005000Y-003000
X006000Y-003000
X004850Y-005310
X008160Y-005810
X008290Y-006680
X010000Y-004000
X010000Y-003000
X011000Y-003000
X011000Y-004000
X009000Y-003000
X013000Y-003000
X013000Y-002000
X014000Y-008000
T02
X002530Y-012680
X004500Y-012680
X001540Y-008930
X001540Y-006930
X013910Y-004560
X013910Y-002560
T03
X001540Y-011060
X001540Y-010060
X001540Y-005680
X001540Y-004680
X007000Y-013000
X009000Y-013000
X011000Y-013000
T04
X005970Y-006800
X014040Y-006800
T05
X002160Y-002560
X013580Y-012600
M30
