%FSLAX34Y34*%
%MOMM*%
%LNCOPPER_BOTTOM*%
G71*
G01*
%ADD10C,3.600*%
%ADD11R,1.620X1.820*%
%ADD12C,2.200*%
%ADD13R,2.000X1.900*%
%ADD14C,2.400*%
%ADD15R,1.900X2.000*%
%ADD16C,0.900*%
%ADD17C,0.700*%
%ADD18C,1.000*%
%ADD19C,1.100*%
%ADD20C,0.800*%
%ADD21C,1.900*%
%ADD22C,0.340*%
%ADD23C,0.607*%
%ADD24C,0.600*%
%ADD25C,0.433*%
%ADD26C,3.000*%
%ADD27R,1.020X1.220*%
%ADD28C,1.600*%
%ADD29R,1.400X1.300*%
%ADD30C,1.800*%
%ADD31C,5.000*%
%ADD32R,1.300X1.400*%
%ADD33C,0.500*%
%ADD34C,0.300*%
%ADD35C,0.700*%
%ADD36C,1.500*%
%LPD*%
G36*
X0Y0D02*
X400000Y0D01*
X400000Y-400000D01*
X0Y-400000D01*
X0Y0D01*
G37*
%LPC*%
G36*
X338550Y-154750D02*
X374550Y-154750D01*
X374550Y-190750D01*
X338550Y-190750D01*
X338550Y-154750D01*
G37*
X151550Y-172750D02*
G54D10*
D03*
X188275Y-134775D02*
G54D11*
D03*
X178075Y-111875D02*
G54D11*
D03*
X198475Y-111875D02*
G54D11*
D03*
X353375Y-64925D02*
G54D12*
D03*
X353375Y-115725D02*
G54D12*
D03*
X64283Y-321980D02*
G54D12*
D03*
X114283Y-321981D02*
G54D12*
D03*
X140438Y-134224D02*
G54D11*
D03*
X130238Y-111324D02*
G54D11*
D03*
X150638Y-111324D02*
G54D11*
D03*
X185100Y-198275D02*
G54D11*
D03*
X195300Y-221175D02*
G54D11*
D03*
X174900Y-221175D02*
G54D11*
D03*
X254950Y-226850D02*
G54D11*
D03*
X265150Y-249750D02*
G54D11*
D03*
X244750Y-249750D02*
G54D11*
D03*
X318450Y-198275D02*
G54D13*
D03*
X318450Y-179275D02*
G54D13*
D03*
X70800Y-115725D02*
G54D13*
D03*
X70800Y-134725D02*
G54D13*
D03*
X39050Y-226850D02*
G54D12*
D03*
X39050Y-176050D02*
G54D12*
D03*
G36*
X27050Y-132300D02*
X51050Y-132300D01*
X51050Y-156300D01*
X27050Y-156300D01*
X27050Y-132300D01*
G37*
X39050Y-118900D02*
G54D14*
D03*
X121600Y-179225D02*
G54D13*
D03*
X121600Y-198225D02*
G54D13*
D03*
X96200Y-179225D02*
G54D13*
D03*
X96200Y-198225D02*
G54D13*
D03*
X70800Y-179225D02*
G54D13*
D03*
X70800Y-198225D02*
G54D13*
D03*
X105725Y-115725D02*
G54D13*
D03*
X105725Y-134725D02*
G54D13*
D03*
X197800Y-85562D02*
G54D15*
D03*
X178800Y-85563D02*
G54D15*
D03*
X223200Y-112550D02*
G54D13*
D03*
X223200Y-131550D02*
G54D13*
D03*
G54D16*
X178800Y-85563D02*
X178800Y-111150D01*
X178075Y-111875D01*
G54D16*
X198475Y-111875D02*
X198475Y-86238D01*
X197800Y-85562D01*
G54D16*
X198475Y-111875D02*
X221556Y-111875D01*
X221826Y-111605D01*
G54D16*
X140438Y-134224D02*
X140438Y-93712D01*
X147000Y-87150D01*
X177213Y-87150D01*
X178800Y-85563D01*
G54D16*
X150638Y-111324D02*
X150638Y-116188D01*
X169225Y-134775D01*
X188275Y-134775D01*
G54D16*
X107674Y-117674D02*
X105725Y-115725D01*
X96200Y-115725D01*
X89850Y-122075D01*
X89850Y-150650D01*
X77150Y-163350D01*
X61275Y-163350D01*
X54925Y-169700D01*
X54925Y-191925D01*
X39050Y-207800D01*
X39050Y-226850D01*
G54D16*
X73975Y-179225D02*
X99375Y-179225D01*
G54D16*
X96200Y-179225D02*
X96200Y-160175D01*
X105725Y-150650D01*
X105725Y-134725D01*
G54D17*
X96200Y-179225D02*
X99375Y-179225D01*
X115250Y-195100D01*
X118476Y-195100D01*
X121600Y-198225D01*
G54D18*
X200975Y-179275D02*
X329750Y-179275D01*
X336150Y-172875D01*
X356425Y-172875D01*
X356550Y-172750D01*
X283525Y-198275D02*
G54D13*
D03*
X283525Y-179275D02*
G54D13*
D03*
X175625Y-252250D02*
G54D15*
D03*
X194625Y-252250D02*
G54D15*
D03*
X220025Y-252250D02*
G54D13*
D03*
X220025Y-233250D02*
G54D13*
D03*
X245425Y-166525D02*
G54D19*
D03*
X245425Y-198275D02*
G54D19*
D03*
G54D16*
X353375Y-64925D02*
X353375Y-71275D01*
X312100Y-112550D01*
X223200Y-112550D01*
G54D16*
X353375Y-115725D02*
X337500Y-131600D01*
X261300Y-131600D01*
X245425Y-147475D01*
X245425Y-166525D01*
G54D16*
X220025Y-233250D02*
X208625Y-233250D01*
X195300Y-221175D01*
G54D16*
X220025Y-252250D02*
X242250Y-252250D01*
X244750Y-249750D01*
G54D16*
X283525Y-198275D02*
X185100Y-198275D01*
G54D18*
X223200Y-131550D02*
X223200Y-179225D01*
X226375Y-214150D02*
G54D19*
D03*
G54D16*
X226375Y-214150D02*
X229550Y-214150D01*
X242250Y-226850D01*
X254950Y-226850D01*
G36*
X27050Y-268825D02*
X51050Y-268825D01*
X51050Y-292825D01*
X27050Y-292825D01*
X27050Y-268825D01*
G37*
X39050Y-255425D02*
G54D14*
D03*
X210500Y-169700D02*
G54D19*
D03*
G54D16*
X188275Y-134775D02*
X188275Y-147475D01*
X210500Y-169700D01*
G54D16*
X194625Y-252250D02*
X220025Y-252250D01*
G54D16*
X283525Y-198275D02*
X283525Y-231375D01*
X265150Y-249750D01*
X70800Y-255425D02*
G54D13*
D03*
X70800Y-274425D02*
G54D13*
D03*
G54D16*
X39050Y-280825D02*
X64400Y-280825D01*
X70800Y-274425D01*
G54D16*
X70800Y-274425D02*
X70800Y-315463D01*
X64283Y-321980D01*
G54D16*
X64400Y-280825D02*
X64450Y-280825D01*
X70800Y-287175D01*
G54D16*
X105725Y-115725D02*
X125837Y-115725D01*
X130238Y-111324D01*
G54D18*
X121600Y-179225D02*
X121600Y-166525D01*
X139062Y-149062D01*
X170812Y-149062D01*
X200975Y-179275D01*
X194911Y-290391D02*
G54D15*
D03*
X175912Y-290391D02*
G54D15*
D03*
G54D16*
X217488Y-179388D02*
X223838Y-173038D01*
X230188Y-179388D01*
G54D20*
X40000Y-30000D02*
X360000Y-30000D01*
G54D20*
G75*
G01X40000Y-30000D02*
G03X20000Y-50000I0J-20000D01*
G01*
G54D20*
G75*
G01X380000Y-50000D02*
G03X360000Y-30000I-20000J0D01*
G01*
G54D20*
X20000Y-50000D02*
X20000Y-335000D01*
G54D20*
G75*
G01X20000Y-335000D02*
G03X40000Y-355000I20000J0D01*
G01*
G54D20*
X380000Y-50000D02*
X380000Y-335000D01*
G54D20*
G75*
G01X360000Y-355000D02*
G03X380000Y-335000I0J20000D01*
G01*
G54D20*
X40000Y-355000D02*
X360000Y-355000D01*
G36*
X20000Y0D02*
X0Y0D01*
X0Y-400000D01*
X20000Y-400000D01*
X20000Y0D01*
G37*
G54D20*
X20000Y0D02*
X0Y0D01*
X0Y-400000D01*
X20000Y-400000D01*
X20000Y0D01*
G36*
X5000Y-355000D02*
X400000Y-355000D01*
X400000Y-400000D01*
X5000Y-400000D01*
X5000Y-355000D01*
G37*
G54D20*
X5000Y-355000D02*
X400000Y-355000D01*
X400000Y-400000D01*
X5000Y-400000D01*
X5000Y-355000D01*
G36*
X0Y0D02*
X400000Y0D01*
X400000Y-30000D01*
X0Y-30000D01*
X0Y0D01*
G37*
G54D20*
X0Y0D02*
X400000Y0D01*
X400000Y-30000D01*
X0Y-30000D01*
X0Y0D01*
G36*
X380000Y0D02*
X400000Y0D01*
X400000Y-400000D01*
X380000Y-400000D01*
X380000Y0D01*
G37*
G54D20*
X380000Y0D02*
X400000Y0D01*
X400000Y-400000D01*
X380000Y-400000D01*
X380000Y0D01*
G54D16*
X194911Y-290391D02*
X235859Y-290391D01*
X254950Y-271300D01*
X254950Y-226850D01*
G54D16*
X175912Y-290391D02*
X135059Y-290391D01*
X114300Y-311150D01*
X114283Y-321981D01*
G54D16*
X39050Y-144300D02*
X58050Y-144300D01*
X67625Y-134725D01*
G54D16*
X39050Y-144300D02*
X39050Y-176050D01*
X279400Y-330200D02*
G54D14*
D03*
X228600Y-330200D02*
G54D14*
D03*
X177800Y-330200D02*
G54D14*
D03*
G54D21*
X151550Y-172750D02*
X151550Y-200950D01*
X140000Y-212500D01*
X140000Y-255000D01*
X90000Y-305000D01*
X90000Y-327500D01*
X105000Y-342500D01*
X165500Y-342500D01*
X177800Y-330200D01*
%LPD*%
G54D22*
G36*
X176600Y-221175D02*
X176600Y-230775D01*
X173200Y-230775D01*
X173200Y-221175D01*
X176600Y-221175D01*
G37*
G36*
X174900Y-222875D02*
X166300Y-222875D01*
X166300Y-219475D01*
X174900Y-219475D01*
X174900Y-222875D01*
G37*
G36*
X173200Y-221175D02*
X173200Y-211575D01*
X176600Y-211575D01*
X176600Y-221175D01*
X173200Y-221175D01*
G37*
G36*
X174900Y-219475D02*
X183500Y-219475D01*
X183500Y-222875D01*
X174900Y-222875D01*
X174900Y-219475D01*
G37*
G54D23*
G36*
X318450Y-201308D02*
X307950Y-201308D01*
X307950Y-195242D01*
X318450Y-195242D01*
X318450Y-201308D01*
G37*
G36*
X318450Y-195242D02*
X328950Y-195242D01*
X328950Y-201308D01*
X318450Y-201308D01*
X318450Y-195242D01*
G37*
G36*
X321484Y-198275D02*
X321484Y-208275D01*
X315416Y-208275D01*
X315416Y-198275D01*
X321484Y-198275D01*
G37*
G54D23*
G36*
X70800Y-112692D02*
X81300Y-112692D01*
X81300Y-118758D01*
X70800Y-118758D01*
X70800Y-112692D01*
G37*
G36*
X70800Y-118758D02*
X60300Y-118758D01*
X60300Y-112692D01*
X70800Y-112692D01*
X70800Y-118758D01*
G37*
G36*
X67766Y-115725D02*
X67766Y-105725D01*
X73834Y-105725D01*
X73834Y-115725D01*
X67766Y-115725D01*
G37*
G54D24*
G36*
X36050Y-118900D02*
X36050Y-106400D01*
X42050Y-106400D01*
X42050Y-118900D01*
X36050Y-118900D01*
G37*
G36*
X39050Y-115900D02*
X51550Y-115900D01*
X51550Y-121900D01*
X39050Y-121900D01*
X39050Y-115900D01*
G37*
G36*
X42050Y-118900D02*
X42050Y-131400D01*
X36050Y-131400D01*
X36050Y-118900D01*
X42050Y-118900D01*
G37*
G36*
X39050Y-121900D02*
X26550Y-121900D01*
X26550Y-115900D01*
X39050Y-115900D01*
X39050Y-121900D01*
G37*
G54D25*
G36*
X96200Y-196058D02*
X106700Y-196058D01*
X106700Y-200392D01*
X96200Y-200392D01*
X96200Y-196058D01*
G37*
G36*
X98366Y-198225D02*
X98366Y-208225D01*
X94034Y-208225D01*
X94034Y-198225D01*
X98366Y-198225D01*
G37*
G36*
X96200Y-200392D02*
X85700Y-200392D01*
X85700Y-196058D01*
X96200Y-196058D01*
X96200Y-200392D01*
G37*
G54D25*
G36*
X70800Y-196058D02*
X81300Y-196058D01*
X81300Y-200392D01*
X70800Y-200392D01*
X70800Y-196058D01*
G37*
G36*
X72966Y-198225D02*
X72966Y-208225D01*
X68634Y-208225D01*
X68634Y-198225D01*
X72966Y-198225D01*
G37*
G36*
X70800Y-200392D02*
X60300Y-200392D01*
X60300Y-196058D01*
X70800Y-196058D01*
X70800Y-200392D01*
G37*
G54D23*
G36*
X172592Y-252250D02*
X172592Y-241750D01*
X178658Y-241750D01*
X178658Y-252250D01*
X172592Y-252250D01*
G37*
G36*
X178658Y-252250D02*
X178658Y-262750D01*
X172592Y-262750D01*
X172592Y-252250D01*
X178658Y-252250D01*
G37*
G36*
X175625Y-255284D02*
X165625Y-255284D01*
X165625Y-249216D01*
X175625Y-249216D01*
X175625Y-255284D01*
G37*
G54D24*
G36*
X36050Y-255425D02*
X36050Y-242925D01*
X42050Y-242925D01*
X42050Y-255425D01*
X36050Y-255425D01*
G37*
G36*
X39050Y-252425D02*
X51550Y-252425D01*
X51550Y-258425D01*
X39050Y-258425D01*
X39050Y-252425D01*
G37*
G36*
X42050Y-255425D02*
X42050Y-267925D01*
X36050Y-267925D01*
X36050Y-255425D01*
X42050Y-255425D01*
G37*
G36*
X39050Y-258425D02*
X26550Y-258425D01*
X26550Y-252425D01*
X39050Y-252425D01*
X39050Y-258425D01*
G37*
G54D23*
G36*
X70800Y-252392D02*
X81300Y-252392D01*
X81300Y-258458D01*
X70800Y-258458D01*
X70800Y-252392D01*
G37*
G36*
X70800Y-258458D02*
X60300Y-258458D01*
X60300Y-252392D01*
X70800Y-252392D01*
X70800Y-258458D01*
G37*
G36*
X67766Y-255425D02*
X67766Y-245425D01*
X73834Y-245425D01*
X73834Y-255425D01*
X67766Y-255425D01*
G37*
G54D24*
G36*
X276400Y-330200D02*
X276400Y-317700D01*
X282400Y-317700D01*
X282400Y-330200D01*
X276400Y-330200D01*
G37*
G36*
X279400Y-327200D02*
X291900Y-327200D01*
X291900Y-333200D01*
X279400Y-333200D01*
X279400Y-327200D01*
G37*
G36*
X282400Y-330200D02*
X282400Y-342700D01*
X276400Y-342700D01*
X276400Y-330200D01*
X282400Y-330200D01*
G37*
G36*
X279400Y-333200D02*
X266900Y-333200D01*
X266900Y-327200D01*
X279400Y-327200D01*
X279400Y-333200D01*
G37*
G54D24*
G36*
X225600Y-330200D02*
X225600Y-317700D01*
X231600Y-317700D01*
X231600Y-330200D01*
X225600Y-330200D01*
G37*
G36*
X228600Y-327200D02*
X241100Y-327200D01*
X241100Y-333200D01*
X228600Y-333200D01*
X228600Y-327200D01*
G37*
G36*
X231600Y-330200D02*
X231600Y-342700D01*
X225600Y-342700D01*
X225600Y-330200D01*
X231600Y-330200D01*
G37*
G36*
X228600Y-333200D02*
X216100Y-333200D01*
X216100Y-327200D01*
X228600Y-327200D01*
X228600Y-333200D01*
G37*
G36*
X341550Y-157750D02*
X371550Y-157750D01*
X371550Y-187750D01*
X341550Y-187750D01*
X341550Y-157750D01*
G37*
X151550Y-172750D02*
G54D26*
D03*
X188275Y-134775D02*
G54D27*
D03*
X178075Y-111875D02*
G54D27*
D03*
X198475Y-111875D02*
G54D27*
D03*
X353375Y-64925D02*
G54D28*
D03*
X353375Y-115725D02*
G54D28*
D03*
X64283Y-321980D02*
G54D28*
D03*
X114283Y-321981D02*
G54D28*
D03*
X140438Y-134224D02*
G54D27*
D03*
X130238Y-111324D02*
G54D27*
D03*
X150638Y-111324D02*
G54D27*
D03*
X185100Y-198275D02*
G54D27*
D03*
X195300Y-221175D02*
G54D27*
D03*
X174900Y-221175D02*
G54D27*
D03*
X254950Y-226850D02*
G54D27*
D03*
X265150Y-249750D02*
G54D27*
D03*
X244750Y-249750D02*
G54D27*
D03*
X318450Y-198275D02*
G54D29*
D03*
X318450Y-179275D02*
G54D29*
D03*
X70800Y-115725D02*
G54D29*
D03*
X70800Y-134725D02*
G54D29*
D03*
X39050Y-226850D02*
G54D28*
D03*
X39050Y-176050D02*
G54D28*
D03*
G36*
X30050Y-135300D02*
X48050Y-135300D01*
X48050Y-153300D01*
X30050Y-153300D01*
X30050Y-135300D01*
G37*
X39050Y-118900D02*
G54D30*
D03*
X54925Y-64925D02*
G54D31*
D03*
X121600Y-179225D02*
G54D29*
D03*
X121600Y-198225D02*
G54D29*
D03*
X96200Y-179225D02*
G54D29*
D03*
X96200Y-198225D02*
G54D29*
D03*
X70800Y-179225D02*
G54D29*
D03*
X70800Y-198225D02*
G54D29*
D03*
X105725Y-115725D02*
G54D29*
D03*
X105725Y-134725D02*
G54D29*
D03*
X197800Y-85562D02*
G54D32*
D03*
X178800Y-85563D02*
G54D32*
D03*
X223200Y-112550D02*
G54D29*
D03*
X223200Y-131550D02*
G54D29*
D03*
X345000Y-320000D02*
G54D31*
D03*
G54D33*
X178800Y-85563D02*
X178800Y-111150D01*
X178075Y-111875D01*
G54D33*
X198475Y-111875D02*
X198475Y-86238D01*
X197800Y-85562D01*
G54D33*
X198475Y-111875D02*
X221556Y-111875D01*
X221826Y-111605D01*
G54D33*
X140438Y-134224D02*
X140438Y-93712D01*
X147000Y-87150D01*
X177213Y-87150D01*
X178800Y-85563D01*
G54D33*
X150638Y-111324D02*
X150638Y-116188D01*
X169225Y-134775D01*
X188275Y-134775D01*
G54D33*
X107674Y-117674D02*
X105725Y-115725D01*
X96200Y-115725D01*
X89850Y-122075D01*
X89850Y-150650D01*
X77150Y-163350D01*
X61275Y-163350D01*
X54925Y-169700D01*
X54925Y-191925D01*
X39050Y-207800D01*
X39050Y-226850D01*
G54D33*
X73975Y-179225D02*
X99375Y-179225D01*
G54D33*
X96200Y-179225D02*
X96200Y-160175D01*
X105725Y-150650D01*
X105725Y-134725D01*
G54D34*
X96200Y-179225D02*
X99375Y-179225D01*
X115250Y-195100D01*
X118476Y-195100D01*
X121600Y-198225D01*
G54D24*
X200975Y-179275D02*
X329750Y-179275D01*
X336150Y-172875D01*
X356425Y-172875D01*
X356550Y-172750D01*
X283525Y-198275D02*
G54D29*
D03*
X283525Y-179275D02*
G54D29*
D03*
X175625Y-252250D02*
G54D32*
D03*
X194625Y-252250D02*
G54D32*
D03*
X220025Y-252250D02*
G54D29*
D03*
X220025Y-233250D02*
G54D29*
D03*
X245425Y-166525D02*
G54D35*
D03*
X245425Y-198275D02*
G54D35*
D03*
G54D33*
X353375Y-64925D02*
X353375Y-71275D01*
X312100Y-112550D01*
X223200Y-112550D01*
G54D33*
X353375Y-115725D02*
X337500Y-131600D01*
X261300Y-131600D01*
X245425Y-147475D01*
X245425Y-166525D01*
G54D33*
X220025Y-233250D02*
X208625Y-233250D01*
X195300Y-221175D01*
G54D33*
X220025Y-252250D02*
X242250Y-252250D01*
X244750Y-249750D01*
G54D33*
X283525Y-198275D02*
X185100Y-198275D01*
G54D24*
X223200Y-131550D02*
X223200Y-179225D01*
X226375Y-214150D02*
G54D35*
D03*
G54D33*
X226375Y-214150D02*
X229550Y-214150D01*
X242250Y-226850D01*
X254950Y-226850D01*
G36*
X30050Y-271825D02*
X48050Y-271825D01*
X48050Y-289825D01*
X30050Y-289825D01*
X30050Y-271825D01*
G37*
X39050Y-255425D02*
G54D30*
D03*
X210500Y-169700D02*
G54D35*
D03*
G54D33*
X188275Y-134775D02*
X188275Y-147475D01*
X210500Y-169700D01*
G54D33*
X194625Y-252250D02*
X220025Y-252250D01*
G54D33*
X283525Y-198275D02*
X283525Y-231375D01*
X265150Y-249750D01*
X70800Y-255425D02*
G54D29*
D03*
X70800Y-274425D02*
G54D29*
D03*
G54D33*
X39050Y-280825D02*
X64400Y-280825D01*
X70800Y-274425D01*
G54D33*
X70800Y-274425D02*
X70800Y-315463D01*
X64283Y-321980D01*
G54D33*
X64400Y-280825D02*
X64450Y-280825D01*
X70800Y-287175D01*
G54D33*
X105725Y-115725D02*
X125837Y-115725D01*
X130238Y-111324D01*
G54D24*
X121600Y-179225D02*
X121600Y-166525D01*
X139062Y-149062D01*
X170812Y-149062D01*
X200975Y-179275D01*
X194911Y-290391D02*
G54D32*
D03*
X175912Y-290391D02*
G54D32*
D03*
G54D33*
X217488Y-179388D02*
X223838Y-173038D01*
X230188Y-179388D01*
X207325Y-147475D02*
G54D35*
D03*
X123188Y-134775D02*
G54D35*
D03*
G54D33*
X194911Y-290391D02*
X235859Y-290391D01*
X254950Y-271300D01*
X254950Y-226850D01*
G54D33*
X175912Y-290391D02*
X135059Y-290391D01*
X114300Y-311150D01*
X114283Y-321981D01*
G54D33*
X39050Y-144300D02*
X58050Y-144300D01*
X67625Y-134725D01*
G54D33*
X39050Y-144300D02*
X39050Y-176050D01*
X101600Y-50800D02*
G54D35*
D03*
X127000Y-50800D02*
G54D35*
D03*
X152400Y-50800D02*
G54D35*
D03*
X177800Y-50800D02*
G54D35*
D03*
X203200Y-50800D02*
G54D35*
D03*
X228600Y-50800D02*
G54D35*
D03*
X254000Y-50800D02*
G54D35*
D03*
X279400Y-50800D02*
G54D35*
D03*
X304800Y-50800D02*
G54D35*
D03*
X304800Y-76200D02*
G54D35*
D03*
X279400Y-76200D02*
G54D35*
D03*
X254000Y-76200D02*
G54D35*
D03*
X228600Y-76200D02*
G54D35*
D03*
X152400Y-76200D02*
G54D35*
D03*
X127000Y-76200D02*
G54D35*
D03*
X101600Y-76200D02*
G54D35*
D03*
X304800Y-101600D02*
G54D35*
D03*
X279400Y-101600D02*
G54D35*
D03*
X254000Y-101600D02*
G54D35*
D03*
X304800Y-152400D02*
G54D35*
D03*
X279400Y-152400D02*
G54D35*
D03*
X254000Y-152400D02*
G54D35*
D03*
X330200Y-50800D02*
G54D35*
D03*
X330200Y-76200D02*
G54D35*
D03*
X152400Y-279400D02*
G54D35*
D03*
X101600Y-228600D02*
G54D35*
D03*
X101600Y-254000D02*
G54D35*
D03*
X76200Y-228600D02*
G54D35*
D03*
X304800Y-228600D02*
G54D35*
D03*
X330200Y-228600D02*
G54D35*
D03*
X355600Y-228600D02*
G54D35*
D03*
X355600Y-254000D02*
G54D35*
D03*
X330200Y-254000D02*
G54D35*
D03*
X304800Y-254000D02*
G54D35*
D03*
X279400Y-254000D02*
G54D35*
D03*
X279400Y-279400D02*
G54D35*
D03*
X304800Y-279400D02*
G54D35*
D03*
X330200Y-279400D02*
G54D35*
D03*
X304800Y-304800D02*
G54D35*
D03*
X279400Y-304800D02*
G54D35*
D03*
X254000Y-330200D02*
G54D35*
D03*
X228600Y-304800D02*
G54D35*
D03*
X254000Y-304800D02*
G54D35*
D03*
X203200Y-330200D02*
G54D35*
D03*
X152400Y-304800D02*
G54D35*
D03*
X50800Y-304800D02*
G54D35*
D03*
X355600Y-203200D02*
G54D35*
D03*
X330200Y-152400D02*
G54D35*
D03*
X279400Y-330200D02*
G54D30*
D03*
X228600Y-330200D02*
G54D30*
D03*
X177800Y-330200D02*
G54D30*
D03*
G54D36*
X151550Y-172750D02*
X151550Y-200950D01*
X140000Y-212500D01*
X140000Y-255000D01*
X90000Y-305000D01*
X90000Y-327500D01*
X105000Y-342500D01*
X165500Y-342500D01*
X177800Y-330200D01*
X158750Y-222250D02*
G54D35*
D03*
X158750Y-254000D02*
G54D35*
D03*
X228600Y-279400D02*
G54D35*
D03*
X133350Y-323850D02*
G54D35*
D03*
X127000Y-228600D02*
G54D35*
D03*
X120650Y-247650D02*
G54D35*
D03*
M02*
